<?xml version="1.0" encoding="iso-8859-1"?>
<!-- Uploaded to: SVG Repo, www.svgrepo.com, Generator: SVG Repo Mixer Tools -->
<svg version="1.1" id="Layer_1" xmlns="http://www.w3.org/2000/svg" xmlns:xlink="http://www.w3.org/1999/xlink" 
	 viewBox="0 0 512 512" xml:space="preserve">
<path style="fill:#6E5B3F;" d="M335.54,104.6h56.66c0,0-1.453,101.438,0,102.892l-58.126-58.126l1.466-1.466V104.6z"/>
<path style="fill:#9DC971;" d="M499.888,440.709h-72.733v-67.827h4.905C469.511,372.882,499.888,403.246,499.888,440.709z"/>
<rect x="200.357" y="298.187" style="fill:#A3875E;" width="111.939" height="142.522"/>
<path style="fill:#DAEDE2;" d="M283.337,180.482c6.916,6.916,11.192,16.46,11.192,27.01s-4.276,20.106-11.192,27.022
	s-16.46,11.192-27.01,11.192c-21.099,0-38.213-17.102-38.213-38.213c0-10.55,4.276-20.094,11.192-27.01s16.472-11.192,27.022-11.192
	C266.877,169.29,276.421,173.566,283.337,180.482z"/>
<path style="fill:#F78A68;" d="M218.114,207.492c0,21.111,17.114,38.213,38.213,38.213c10.55,0,20.094-4.276,27.01-11.192
	c6.916-6.916,11.192-16.472,11.192-27.022c0-10.55-4.276-20.094-11.192-27.01s-16.46-11.192-27.01-11.192
	c-10.55,0-20.106,4.276-27.022,11.192C222.389,187.398,218.114,196.942,218.114,207.492z M427.155,372.882v67.827H312.297V298.187
	H200.357v142.522H84.845v-67.827V242.447L256,71.292l78.074,78.074l58.126,58.126l34.955,34.955L427.155,372.882L427.155,372.882z"
	/>
<path style="fill:#9DC971;" d="M84.845,372.882v67.827H12.112c0-37.462,30.365-67.827,67.827-67.827H84.845z"/>
<path d="M256.327,257.817c-27.75,0-50.326-22.576-50.326-50.326c0-13.436,5.235-26.07,14.738-35.575
	c9.504-9.504,22.143-14.738,35.586-14.738c13.436,0,26.07,5.235,35.574,14.738c9.504,9.506,14.739,22.14,14.739,35.575
	c0,13.443-5.235,26.081-14.739,35.586l0,0l0,0C282.397,252.582,269.763,257.817,256.327,257.817z M256.327,181.402
	c-6.973,0-13.528,2.714-18.458,7.644c-4.93,4.928-7.644,11.48-7.644,18.445c0,14.393,11.709,26.101,26.101,26.101
	c6.966,0,13.516-2.714,18.445-7.644l0,0c4.93-4.93,7.645-11.483,7.645-18.456c0-6.966-2.714-13.516-7.645-18.445
	C269.843,184.117,263.293,181.402,256.327,181.402z"/>
<path d="M195.036,144.367c3.099,0,6.2-1.182,8.564-3.548l3.331-3.331c4.73-4.73,4.73-12.399,0-17.13c-4.73-4.73-12.399-4.73-17.13,0
	l-3.331,3.331c-4.73,4.73-4.73,12.399,0,17.13C188.836,143.185,191.937,144.367,195.036,144.367z"/>
<path d="M439.267,361.11v-89.422l11.881,11.881c2.366,2.365,5.465,3.548,8.564,3.548s6.2-1.182,8.564-3.548
	c4.73-4.73,4.73-12.399,0-17.13l-32.557-32.557l-31.852-31.852c-0.432-13.037-0.126-57.516,0.445-97.256
	c0.046-3.241-1.209-6.367-3.485-8.676c-2.276-2.31-5.383-3.609-8.626-3.609h-56.66c-6.689,0-12.112,5.423-12.112,12.112v16.99
	l-58.863-58.863c-4.73-4.73-12.399-4.73-17.13,0l-30.986,30.986c-4.73,4.73-4.73,12.399,0,17.13c4.73,4.731,12.399,4.73,17.13,0
	l22.422-22.423L383.61,216.031c0.008,0.008,0.016,0.017,0.025,0.025c0.002,0.002,0.004,0.004,0.006,0.006l31.402,31.402v125.418
	v55.715h-90.634v-130.41c0-6.689-5.423-12.112-12.112-12.112H200.357c-6.689,0-12.112,5.423-12.112,12.112v130.41H96.957v-55.715
	V247.464l80.855-80.855c4.73-4.73,4.73-12.399,0-17.13c-4.73-4.729-12.399-4.729-17.13,0l-84.403,84.403l-35.694,35.694
	c-4.73,4.73-4.73,12.399,0,17.13c2.365,2.365,5.465,3.548,8.564,3.548c3.099,0,6.2-1.182,8.564-3.548l15.017-15.017v89.422
	C32.021,364.768,0,399.061,0,440.709c0,6.69,5.423,12.112,12.112,12.112h72.733h115.513h111.939h114.858h72.733
	c6.689,0,12.112-5.423,12.112-12.112C512,399.061,479.979,364.768,439.267,361.11z M347.652,116.712h32.276
	c-0.121,9.822-0.282,24.286-0.385,38.703c-0.059,8.344-0.093,15.76-0.099,22.19l-31.792-31.792L347.652,116.712L347.652,116.712z
	 M72.733,385.458v43.139H25.55C30.585,405.97,49.422,388.481,72.733,385.458z M212.469,310.299h87.715v118.298h-87.715V310.299z
	 M439.267,428.597v-43.139c23.311,3.023,42.146,20.513,47.182,43.139H439.267z"/>
</svg>